<?xml version="1.0" encoding="utf-8"?>
<!-- Generator: Adobe Illustrator 24.0.0, SVG Export Plug-In . SVG Version: 6.00 Build 0)  -->
<svg version="1.1" id="Calque_1" xmlns="http://www.w3.org/2000/svg" xmlns:xlink="http://www.w3.org/1999/xlink" x="0px" y="0px"
	 viewBox="0 0 1920 608" style="enable-background:new 0 0 1920 608;" xml:space="preserve">
<g>
	<path d="M1297.6,159.5h-38h-27.9h-41.3h-35.2l0,285.5h76.5l0-28h121.6l38,104.5h81.4l-131.8-362.1H1297.6z M1231.8,341.4l0-105.4
		h55.7l38.4,105.4H1231.8z"/>
	<polygon points="1041.4,159.5 1041.4,368 876.8,83 876.8,83 876.7,83 800.3,83 800.3,445 876.8,445 876.8,236 1041.4,521 
		1041.4,521.6 1117.9,521.6 1117.9,159.5 	"/>
	<polygon points="1693.2,336.3 1685.4,314.7 1681.8,304.9 1620.2,304.9 1639.1,253 1651,220.3 1600.4,81.2 1518.9,81.2 
		1569.6,220.3 1538.8,304.9 1512.8,304.9 1432,83 1350.6,83 1510.2,521.6 1591.7,521.6 1540.7,381.4 1628.2,381.4 1651.4,445 
		1732.8,445 1694.7,340.3 	"/>
	<polygon points="686.4,159.5 686.4,445 554.6,445 617.7,271.7 536.3,271.7 445.3,521.6 526.7,521.6 526.7,521.6 686.4,521.6 
		686.4,521.6 762.9,521.6 762.9,159.5 	"/>
	<polygon points="486.1,83 399.2,321.8 399.2,83 399.2,83 322.6,83 317.7,83 185.9,445 267.4,445 322.6,293.2 322.6,521.6 
		326.4,521.6 326.4,521.6 407.9,521.6 567.5,83 	"/>
	<polygon points="204.3,67.7 10,604.8 120.6,521.6 269.2,113.3 	"/>
	<polygon points="309.2,3.2 219.7,25.4 211,49.5 275.8,95.1 	"/>
	<polygon points="1715.7,70.8 1650.8,116.4 1799.4,524.7 1910,604.8 	"/>
	<polygon points="1709,52.6 1700.3,28.5 1610.2,3.2 1644.2,98.3 	"/>
</g>
</svg>
