<?xml version="1.0" standalone="no"?>
<!DOCTYPE svg PUBLIC "-//W3C//DTD SVG 20010904//EN"
 "http://www.w3.org/TR/2001/REC-SVG-20010904/DTD/svg10.dtd">
<svg version="1.0" xmlns="http://www.w3.org/2000/svg"
 width="260.000000pt" height="260.000000pt" viewBox="0 0 260.000000 260.000000"
 preserveAspectRatio="xMidYMid meet">
<metadata>
Created by potrace 1.14, written by Peter Selinger 2001-2017
</metadata>
<g transform="translate(0.000000,260.000000) scale(0.100000,-0.100000)"
fill="#000000" stroke="none">
<path d="M0 1300 l0 -1300 1300 0 1300 0 0 1300 0 1300 -1300 0 -1300 0 0
-1300z m1385 988 c26 -28 45 -36 128 -55 225 -51 431 -188 570 -380 55 -76
123 -226 149 -329 31 -126 31 -322 0 -448 -26 -103 -94 -254 -149 -329 -34
-47 -38 -58 -38 -114 0 -55 -3 -65 -29 -92 -34 -36 -82 -48 -127 -32 -26 9
-36 8 -60 -10 -56 -40 -217 -109 -305 -131 -126 -31 -322 -31 -448 0 -88 22
-249 91 -305 131 -24 18 -34 19 -60 10 -45 -16 -93 -4 -127 32 -26 27 -29 37
-29 92 0 56 -4 67 -38 114 -55 75 -123 226 -149 329 -31 126 -31 322 0 448 26
103 94 253 149 329 139 192 345 329 570 380 81 18 102 27 122 50 32 38 57 48
106 42 29 -3 48 -13 70 -37z"/>
<path d="M1082 2174 c-167 -44 -296 -119 -417 -239 -121 -122 -194 -248 -241
-421 -22 -83 -29 -257 -15 -350 22 -131 84 -287 155 -384 33 -45 33 -45 94
-45 56 0 64 -3 94 -33 29 -29 33 -39 33 -88 l0 -56 55 -32 c66 -39 165 -80
252 -103 88 -25 328 -25 416 0 87 23 186 64 252 103 l55 32 0 56 c0 49 4 59
33 88 30 30 38 33 94 33 61 0 61 0 94 45 71 97 133 253 155 384 14 93 7 267
-15 350 -24 88 -64 183 -110 260 -45 76 -175 215 -247 264 -100 68 -257 133
-354 147 -41 7 -45 5 -54 -16 -18 -47 -59 -74 -111 -74 -52 0 -93 27 -111 73
-10 26 -30 27 -107 6z m-118 -618 c45 -19 66 -52 66 -103 l0 -43 -59 0 c-60 0
-60 0 -63 32 -4 37 -22 47 -37 20 -16 -31 -2 -60 48 -91 25 -16 62 -46 81 -66
32 -33 35 -41 38 -110 5 -87 -7 -113 -61 -139 -71 -33 -184 -10 -212 45 -8 15
-15 51 -15 79 l0 50 59 0 60 0 3 -47 c2 -35 7 -49 20 -51 20 -4 32 29 24 63
-4 14 -37 49 -77 81 -94 75 -114 124 -88 217 7 27 19 42 47 57 44 23 119 26
166 6z m432 -11 c41 -17 64 -63 64 -130 0 -45 -24 -85 -52 -85 -7 0 1 -9 19
-20 37 -22 48 -60 41 -151 -7 -96 -20 -103 -178 -107 l-130 -4 0 256 0 256
100 0 c66 0 113 -5 136 -15z m464 -35 l0 -50 -40 0 -40 0 0 -205 0 -205 -65 0
-65 0 0 205 0 205 -40 0 -40 0 0 50 0 50 145 0 145 0 0 -50z"/>
<path d="M1290 1415 c0 -47 3 -55 19 -55 21 0 31 19 31 55 0 36 -10 55 -31 55
-16 0 -19 -8 -19 -55z"/>
<path d="M1290 1210 c0 -51 4 -70 13 -70 24 0 37 24 37 66 0 55 -8 74 -31 74
-17 0 -19 -8 -19 -70z"/>
</g>
</svg>
